<?xml version="1.0" encoding="UTF-8"?>
<svg version="1.1" xmlns="http://www.w3.org/2000/svg" width="2392" height="1834">
<path d="M0 0 C1.02544922 0.47018555 2.05089844 0.94037109 3.10742188 1.42480469 C43.45322128 20.03528118 81.67201237 43.7440382 116 72 C116.82886719 72.66773438 117.65773438 73.33546875 118.51171875 74.0234375 C124.00402759 78.46539238 129.39892921 83.01465339 134.75 87.625 C135.36383545 88.1511792 135.9776709 88.6773584 136.61010742 89.21948242 C140.36057341 92.46860597 143.91679371 95.84756652 147.38183594 99.39990234 C149.02354041 101.02327759 150.73197669 102.51618327 152.5 104 C161.32417584 111.61538463 169.75473292 120.08541438 177.2734375 128.9921875 C179.11150974 131.12967423 181.01797484 133.19675323 182.9362793 135.26220703 C188.55063315 141.31195197 193.84149013 147.55399427 199 154 C199.92240375 155.13083957 200.84562196 156.26101515 201.76953125 157.390625 C244.69869046 210.12076696 279.18463938 272.90086765 298.5859375 338.23046875 C298.81087891 338.98787354 299.03582031 339.74527832 299.26757812 340.52563477 C299.82171691 342.44084352 300.34606641 344.36460746 300.8671875 346.2890625 C301.79441533 349.01562796 301.79441533 349.01562796 303.6640625 350.59375 C307.39320343 351.24229625 310.22804908 349.47910957 313.5 347.875 C314.93446719 347.21109141 316.37068672 346.55095649 317.80859375 345.89453125 C318.51741699 345.5692041 319.22624023 345.24387695 319.95654297 344.90869141 C327.78748733 341.42640049 335.69784458 338.09122405 344.125 341.125 C350.16599744 345.06478094 352.87402316 350.06831058 355 356.8125 C355.25072266 357.59761963 355.50144531 358.38273926 355.75976562 359.19165039 C361.20499892 376.97309419 363.61125709 395.44785698 366.1875 413.8125 C366.31415039 414.71290009 366.44080078 415.61330017 366.57128906 416.54098511 C370.55265788 445.06319163 372.21163269 473.07800046 372.1875 501.875 C372.18723312 502.53739937 372.18696625 503.19979874 372.18669128 503.88227081 C372.17569848 525.64334258 371.86998912 547.3111102 370 569 C369.93683594 569.74137207 369.87367187 570.48274414 369.80859375 571.24658203 C366.58549815 608.65187046 360.58635748 645.45832746 352 682 C351.84229126 682.67444153 351.68458252 683.34888306 351.52209473 684.04376221 C343.87442615 716.63892228 333.60779326 748.40071482 320 779 C319.4726123 780.18948242 318.94522461 781.37896484 318.40185547 782.60449219 C298.12877386 828.00108311 271.83127122 873.19950896 235.8828125 908.1171875 C234.27443863 909.72556137 232.84566378 911.34381271 231.4375 913.125 C228.80569911 916.22917541 225.95806139 918.7581955 222.86328125 921.38671875 C220.85785564 923.07706634 220.85785564 923.07706634 218.625 925.4375 C217 927 217 927 215 927 C216.07787273 915.31283462 217.54077839 903.6892363 219.1640625 892.06640625 C219.26255241 891.3609605 219.36104233 890.65551476 219.46251678 889.92869186 C220.17892905 884.8060038 220.90158224 879.68420261 221.625 874.5625 C222.35564097 869.38590526 223.08409571 864.2090154 223.80823898 859.03150749 C224.09623353 856.97937829 224.38757097 854.92774241 224.67910767 852.87611389 C224.85283905 851.63639328 225.02657043 850.39667267 225.20556641 849.11938477 C225.35941803 848.03085709 225.51326965 846.94232941 225.67178345 845.82081604 C226.0770503 842.81110865 226.0770503 842.81110865 226 839 C224.98465333 840.31995068 223.96932944 841.63991888 222.95410156 842.95996094 C222.05278472 844.13147416 221.15107941 845.30268861 220.24902344 846.47363281 C218.0242821 849.36256783 215.80597867 852.25564048 213.6015625 855.16015625 C204.50849737 867.1080209 195.07489611 878.81636798 184.9296875 889.890625 C183.14829604 891.83789502 181.4124023 893.81524471 179.6875 895.8125 C170.83382816 905.94958507 161.5303684 915.63478065 151.99853516 925.13183594 C150.23351456 926.8914348 148.47398867 928.65640397 146.71484375 930.421875 C140.97747076 936.16261869 135.1931642 941.74695325 129 947 C127.39231627 948.45445517 125.78760285 949.91220895 124.1875 951.375 C119.92525284 955.21684342 115.55756431 958.89118753 111.09375 962.49609375 C108.83018164 964.32809794 106.58242755 966.17326857 104.34375 968.03515625 C94.89076672 975.86479257 85.14637978 983.09597201 75 990 C74.15711426 990.57427734 73.31422852 991.14855469 72.44580078 991.74023438 C61.50028958 999.17249561 50.48627385 1006.42834008 39 1013 C38.00299072 1013.57065186 38.00299072 1013.57065186 36.98583984 1014.15283203 C31.6918677 1017.1661723 26.35620501 1020.09893985 21 1023 C20.12843262 1023.4734082 19.25686523 1023.94681641 18.35888672 1024.43457031 C-52.12875692 1062.52580631 -138.18891508 1087.68542297 -218.875 1088.23828125 C-220.06595779 1088.2480751 -221.25691559 1088.25786896 -222.48396301 1088.26795959 C-248.45998225 1088.43747551 -274.05721898 1088.18161541 -299.78686523 1084.3293457 C-302.11381212 1083.98306315 -304.44236263 1083.64968217 -306.77148438 1083.31835938 C-392.60950842 1071.03391278 -473.94282935 1042.62935429 -585.1015625 964.5 C-587.81213825 962.16203709 -590.57696791 959.91936138 -593.375 957.6875 C-599.25062013 952.9050185 -604.73573201 947.73997814 -610.23828125 942.5390625 C-612.58727583 940.31900176 -614.95361179 938.12367943 -617.35546875 935.9609375 C-625.12474727 928.9542515 -632.30247712 921.52509398 -639.35400391 913.79882812 C-640.89732751 912.11220571 -642.4517824 910.43687443 -644.01171875 908.765625 C-649.04145546 903.36248285 -653.87210807 897.84555854 -658.5 892.09375 C-660.39904647 889.74368 -662.31458696 887.41356378 -664.25 885.09375 C-670.54811466 877.53356178 -676.66360151 869.89528553 -682.50854492 861.97900391 C-686.77565874 856.22609036 -691.2594058 850.66658754 -695.81274414 845.13842773 C-696.3308667 844.50880127 -696.84898926 843.8791748 -697.3828125 843.23046875 C-697.84059082 842.67770264 -698.29836914 842.12493652 -698.77001953 841.55541992 C-699.92461634 840.09532935 -700.96745896 838.54881157 -702 837 C-701.37623923 847.10662985 -700.1252415 857.07905686 -698.71484375 867.09765625 C-698.49165117 868.70611354 -698.26888598 870.31463018 -698.04652405 871.92320251 C-697.46617392 876.11576293 -696.88165374 880.30772902 -696.29571533 884.49951172 C-695.35388092 891.23822541 -694.41587107 897.97746138 -693.48288155 904.71740532 C-693.15729142 907.06202738 -692.82827321 909.406151 -692.49900818 911.7502594 C-692.29989507 913.18382813 -692.10091811 914.61741577 -691.90209961 916.05102539 C-691.72746689 917.29976944 -691.55283417 918.54851349 -691.37290955 919.83509827 C-691 923 -691 923 -691 927 C-699.00996074 925.90521298 -703.91441095 919.30705175 -708.90234375 913.41015625 C-711.06231591 910.92840053 -713.30297092 908.54474715 -715.56567383 906.15722656 C-721.99940376 899.34954016 -727.9179728 892.30237387 -733.58447266 884.84814453 C-735.04207004 882.94507241 -736.52417129 881.06332576 -738.01171875 879.18359375 C-765.87272335 843.745401 -787.46013305 804.00182937 -803.29290771 761.87908936 C-803.98873413 760.02993891 -804.69084995 758.18315907 -805.39306641 756.33642578 C-828.10865006 696.18323954 -840.57600102 632.9678514 -846.2734375 569.046875 C-846.33350479 568.38077209 -846.39357208 567.71466919 -846.45545959 567.02838135 C-847.60573095 553.55426143 -848.16100491 540.12183951 -848.16796875 526.6015625 C-848.1712041 525.07302829 -848.1745696 523.54449435 -848.17805481 522.01596069 C-848.18398562 518.82769052 -848.18590153 515.63944716 -848.18530273 512.45117188 C-848.18522234 509.26589166 -848.19203515 506.08075794 -848.20581055 502.89550781 C-848.27922487 485.62513526 -848.09210469 468.41340758 -847.09765625 451.16796875 C-847.05764181 450.46397068 -847.01762737 449.75997261 -846.97640038 449.03464127 C-841.8986524 361.8986524 -841.8986524 361.8986524 -823.5 343.5 C-817.72740628 340.03644377 -813.6287863 339.57066429 -807 341 C-802.37733287 342.62836672 -797.91651576 344.57705914 -793.4375 346.5625 C-792.23802734 347.08263672 -791.03855469 347.60277344 -789.80273438 348.13867188 C-786.86359183 349.41503258 -783.92977084 350.70230692 -781 352 C-778.58361779 349.58361779 -778.02136642 347.66127304 -776.890625 344.4375 C-776.47321045 343.26566162 -776.0557959 342.09382324 -775.62573242 340.88647461 C-775.40275482 340.25530731 -775.17977722 339.62414001 -774.95004272 338.97384644 C-764.98787133 310.88442303 -753.41658668 283.61115852 -740 257 C-739.44425293 255.89269531 -738.88850586 254.78539062 -738.31591797 253.64453125 C-719.72226527 216.75193005 -696.85138834 181.56356511 -670.453125 149.75732422 C-668.36384079 147.23066633 -666.31028732 144.67532093 -664.25 142.125 C-660.73332218 137.82898516 -657.08165718 133.67936063 -653.3359375 129.58203125 C-652.08185637 128.1958312 -650.83344807 126.80378369 -649.6237793 125.37866211 C-644.32742729 119.16743387 -638.58152458 113.4299538 -632.80297852 107.67260742 C-631.066064 105.941053 -629.33456111 104.20421641 -627.60351562 102.46679688 C-621.90446359 96.76401654 -616.16375277 91.20484957 -610 86 C-608.91639998 85.05126796 -607.834322 84.1007942 -606.75390625 83.1484375 C-597.80919093 75.34634101 -588.50050249 68.10952565 -579 61 C-578.22962402 60.41927734 -577.45924805 59.83855469 -576.66552734 59.24023438 C-565.73480133 51.00675893 -554.63743268 43.20277993 -543 36 C-541.84661133 35.28529541 -541.84661133 35.28529541 -540.66992188 34.55615234 C-468.44022754 -9.9639781 -386.84747722 -37.17621304 0 0 Z M-294 64 C-294.81418396 64.06316406 -295.62836792 64.12632812 -296.46722412 64.19140625 C-383.66637896 70.9833891 -471.03911117 88.43722198 -609 176 C-609.86625 176.76699219 -610.7325 177.53398437 -611.625 178.32421875 C-614.09912538 180.53269285 -616.55127948 182.76340268 -619 185 C-620.0858845 185.98052745 -621.17182538 186.96099246 -622.2578125 187.94140625 C-627.49294533 192.69116748 -632.60583624 197.3968039 -637.14453125 202.83203125 C-639.09547327 205.11155298 -641.13781346 207.29181585 -643.19677734 209.47363281 C-649.93872264 216.64158597 -656.10001722 224.12805532 -662 232 C-662.51175781 232.68191406 -663.02351563 233.36382812 -663.55078125 234.06640625 C-676.08498109 250.87016321 -687.21532472 268.46061526 -697 287 C-697.70358643 288.3312793 -697.70358643 288.3312793 -698.42138672 289.68945312 C-730.18779778 350.31061607 -748.95696465 420.44740074 -750 489 C-750.02046387 490.14307617 -750.04092773 491.28615234 -750.06201172 492.46386719 C-751.4492795 582.64773783 -733.88919199 672.67260972 -626 861 C-625.55237305 861.53109375 -625.10474609 862.0621875 -624.64355469 862.609375 C-618.1098927 870.35039148 -611.43673349 877.94004632 -604.53076172 885.3515625 C-602.8471364 887.16461483 -601.17571239 888.98854633 -599.50390625 890.8125 C-591.58967833 899.40273923 -583.38879787 907.54215562 -574.75048828 915.40234375 C-573.08274241 916.92448168 -571.42790699 918.45926997 -569.77734375 920 C-564.34648097 925.05685788 -558.80339516 929.92005282 -553.01953125 934.5703125 C-550.7933284 936.36164261 -548.58511884 938.16738303 -546.38671875 939.9921875 C-514.63190407 966.26335136 -479.40429889 987.84048254 -443 1007 C-442.08782715 1007.48210938 -441.1756543 1007.96421875 -440.23583984 1008.4609375 C-379.70087141 1040.24865619 -310.9856509 1056.20521898 -242.75 1056.25 C-241.8148053 1056.25067474 -240.8796106 1056.25134949 -239.91607666 1056.25204468 C-145.02568493 1056.14447288 -53.06710804 1026.51741623 76 937 C76.60682617 936.49227051 77.21365234 935.98454102 77.83886719 935.46142578 C79.6269399 933.959464 81.40884456 932.4505984 83.1875 930.9375 C83.68483643 930.51581543 84.18217285 930.09413086 84.69458008 929.65966797 C95.27372344 920.56876843 105.29102444 910.87538342 115.13183594 900.99853516 C116.8914348 899.23351456 118.65640397 897.47398867 120.421875 895.71484375 C126.16168512 889.97870623 131.76342712 884.20571909 137 878 C137.94869808 876.91637025 138.8991728 875.83429291 139.8515625 874.75390625 C147.06579554 866.48223749 153.80373268 857.90997457 160.39306641 849.13476562 C161.96516569 847.04627639 163.54924023 844.96743916 165.13671875 842.890625 C171.79173729 834.15452384 178.08351096 825.25245048 184 816 C184.72823975 814.86232178 184.72823975 814.86232178 185.47119141 813.70166016 C209.53523871 775.90190626 228.65275792 736.08053035 244 694 C244.3825293 692.95118652 244.76505859 691.90237305 245.15917969 690.82177734 C259.07070374 652.141099 266.86168586 611.8188258 271 571 C271.10602539 569.96311035 271.21205078 568.9262207 271.32128906 567.85791016 C272.40930508 555.27553138 272.24308031 542.6188762 272.25 530 C272.25100708 528.7252179 272.25201416 527.45043579 272.25305176 526.13702393 C272.21172086 448.22463152 261.93407276 368.94845172 228 298 C227.58540527 297.12005371 227.17081055 296.24010742 226.74365234 295.33349609 C199.70493423 238.20174569 156.11100346 188.5135285 104 153 C102.79025125 152.16292418 101.58061155 151.32569075 100.37109375 150.48828125 C24.57204891 98.49510213 -66.58877392 74.74721001 -180 63 C-181.93649414 62.86863647 -181.93649414 62.86863647 -183.91210938 62.73461914 C-198.22607321 61.8353146 -212.53714978 61.79996864 -226.875 61.8125 C-228.15545197 61.81310425 -229.43590393 61.8137085 -230.75515747 61.81433105 C-251.90511457 61.84132841 -272.91664229 62.32787355 -294 64 Z " fill="#EE9223" transform="translate(1434,104)"/>
<path d="M0 0 C4.03659756 3.13957588 6.57141525 5.60275306 7.99609375 10.58984375 C8.41217896 12.03653442 8.41217896 12.03653442 8.83666992 13.51245117 C9.11744385 14.56021729 9.39821777 15.6079834 9.6875 16.6875 C9.98825439 17.79649658 10.28900879 18.90549316 10.59887695 20.0480957 C15.71861773 39.58764433 18.38258076 59.45097165 20.5 79.5 C20.58317474 80.287164 20.66634949 81.074328 20.75204468 81.88534546 C22.743432 101.01112281 23.45669078 119.9574486 23.4375 139.1875 C23.43659363 140.8688353 23.43659363 140.8688353 23.43566895 142.58413696 C23.31184566 227.55937776 5.4558595 307.5283599 -32.75 383.75 C-33.18054687 384.61367188 -33.61109375 385.47734375 -34.0546875 386.3671875 C-42.33197811 402.86621643 -52.12296833 418.40871094 -63.75 432.75 C-64.48734375 433.67941406 -65.2246875 434.60882812 -65.984375 435.56640625 C-71.60649586 442.57412073 -77.56245643 449.24220658 -83.75 455.75 C-84.30333008 456.33201172 -84.85666016 456.91402344 -85.42675781 457.51367188 C-87.14848522 459.31185598 -88.88381674 461.09566332 -90.625 462.875 C-91.1602832 463.43171387 -91.69556641 463.98842773 -92.24707031 464.56201172 C-95.20600672 467.54599242 -97.69863989 469.53907687 -101.75 470.75 C-100.47578649 459.2337343 -99.07524826 447.743424 -97.35546875 436.28515625 C-94.56249216 417.61755076 -92.10883565 398.99289727 -90.4375 380.1875 C-90.35646027 379.27986908 -90.27542053 378.37223816 -90.19192505 377.43710327 C-88.64190912 359.87672033 -87.51568885 342.38357957 -87.5 324.75 C-87.49899292 323.9507309 -87.49798584 323.15146179 -87.49694824 322.32797241 C-87.51311343 303.19528657 -89.4035413 284.70592502 -93.98046875 266.1015625 C-94.75 262.75 -94.75 262.75 -94.75 259.75 C-147.34194173 272.71951372 -200.66699972 287.10816715 -248.75 312.75 C-249.45495605 313.11915527 -250.15991211 313.48831055 -250.88623047 313.86865234 C-318.89427583 349.60370786 -360.47126372 411.80571147 -383.0559082 483.54785156 C-383.69894042 485.58800301 -384.34772352 487.62622615 -384.99804688 489.6640625 C-393.46475446 516.43069213 -399.86238973 543.78220249 -406.59606934 571.02194214 C-415.30331664 606.23335105 -424.25047712 641.38790696 -433.49926758 676.46105957 C-434.20445766 679.1359692 -434.90512215 681.81199855 -435.60180664 684.48913574 C-436.56421445 688.1778226 -437.53989113 691.86273304 -438.51953125 695.546875 C-438.94502007 697.19200073 -438.94502007 697.19200073 -439.37910461 698.87036133 C-439.64821152 699.87059326 -439.91731842 700.8708252 -440.19458008 701.90136719 C-440.42389725 702.770578 -440.65321442 703.63978882 -440.88948059 704.53533936 C-441.82251456 706.93662583 -442.90005233 708.00831277 -444.75 709.75 C-450.04832162 694.63830032 -454.33945972 679.42848743 -458.20703125 663.89453125 C-458.80021025 661.53635649 -459.39403148 659.1783432 -459.9884491 656.82048035 C-461.2277521 651.89772986 -462.4618537 646.97371779 -463.69165039 642.04858398 C-465.23395292 635.87213157 -466.78534068 629.69801195 -468.34021759 623.52471447 C-474.5436776 598.88981447 -480.6914609 574.24472782 -486.44429016 549.50007629 C-498.45003908 498.10234985 -514.31615758 441.81412652 -545.75 398.75 C-546.21760742 398.10272949 -546.68521484 397.45545898 -547.16699219 396.78857422 C-550.60978591 392.04196705 -554.14412335 387.3737334 -557.75 382.75 C-558.95462891 381.203125 -558.95462891 381.203125 -560.18359375 379.625 C-566.26035889 372.15787099 -572.96934917 365.324498 -579.75 358.5 C-580.66378418 357.57687012 -581.57756836 356.65374023 -582.51904297 355.70263672 C-597.49333289 340.7979573 -614.6125721 328.50048585 -632.75 317.75 C-633.42305176 317.34958496 -634.09610352 316.94916992 -634.78955078 316.53662109 C-682.63891938 288.34919945 -739.2524895 270.03119261 -793.75 259.75 C-793.87503906 261.04292969 -794.00007812 262.33585937 -794.12890625 263.66796875 C-794.75573463 269.31162748 -795.94362747 274.79002654 -797.20117188 280.32226562 C-800.52534784 295.95726816 -801.12335175 312.00065062 -801.12060547 327.93457031 C-801.12491262 330.69402092 -801.16123956 333.4517739 -801.19921875 336.2109375 C-801.40364373 367.817387 -795.68749334 399.53677412 -791.37615967 430.77044678 C-790.73566462 435.41811495 -790.10052872 440.06651569 -789.46484375 444.71484375 C-788.23159086 453.72725713 -786.99275738 462.73889264 -785.75 471.75 C-786.41 472.08 -787.07 472.41 -787.75 472.75 C-799.18288108 464.83492848 -808.17590751 454.59413046 -816.75 443.75 C-817.63414584 442.68795694 -818.5209935 441.62815886 -819.41015625 440.5703125 C-837.6854833 418.62427336 -852.62859304 393.573867 -864.75 367.75 C-865.14477539 366.92274414 -865.53955078 366.09548828 -865.94628906 365.24316406 C-891.06784011 312.18322901 -903.41147175 253.90822772 -908.4375 195.6875 C-908.49843842 194.98435669 -908.55937683 194.28121338 -908.62216187 193.5567627 C-910.27803425 174.14890142 -910.9564786 154.78933654 -910.9375 135.3125 C-910.93722809 134.25394806 -910.93695618 133.19539612 -910.93667603 132.10476685 C-910.88958371 91.89885516 -909.74435137 51.22553814 -896.1875 12.9375 C-895.91905273 12.16108154 -895.65060547 11.38466309 -895.37402344 10.5847168 C-893.68835695 6.10558802 -892.1480708 3.09313174 -887.75 0.75 C-884.32421875 0.62109375 -884.32421875 0.62109375 -880.4375 1.1875 C-879.18324219 1.35121094 -877.92898438 1.51492188 -876.63671875 1.68359375 C-863.33684594 4.2903747 -851.57238222 9.41951867 -839.6875 15.75 C-838.23447985 16.51230294 -836.78110498 17.27393011 -835.32739258 18.03491211 C-824.32256353 23.81898651 -813.45611212 29.83577656 -802.69189453 36.05615234 C-799.46793955 37.91240128 -796.23300188 39.74846765 -792.99609375 41.58203125 C-770.15052512 54.53296744 -747.67569392 68.04653538 -725.45751953 82.04785156 C-723.0379689 83.5689613 -720.61252901 85.07987939 -718.18359375 86.5859375 C-707.67514458 93.12541452 -697.36052854 99.94844631 -687.0625 106.8125 C-686.37302277 107.27181915 -685.68354553 107.73113831 -684.97317505 108.20437622 C-672.00035917 116.85362856 -659.09988978 125.61392788 -646.375 134.625 C-645.68132324 135.11564941 -644.98764648 135.60629883 -644.27294922 136.11181641 C-625.17941244 149.64371352 -606.23909051 163.40132358 -587.75 177.75 C-586.14776113 178.98146468 -584.54374816 180.21059417 -582.93969727 181.43969727 C-570.65600937 190.8593415 -558.54663041 200.48039347 -546.55859375 210.2734375 C-544.9576452 211.58047541 -543.35402024 212.88423356 -541.75 214.1875 C-536.3094239 218.6158759 -530.93544004 223.11585665 -525.59179688 227.66015625 C-522.11719731 230.6100541 -518.60524306 233.5068272 -515.0625 236.375 C-510.60735364 240.00128192 -506.31794453 243.77388026 -502.07421875 247.64453125 C-500.03726075 249.48977555 -497.96729153 251.2808167 -495.875 253.0625 C-486.60862376 261.16823921 -478.26467179 270.00158556 -470.75 279.75 C-470.32364258 280.28931152 -469.89728516 280.82862305 -469.45800781 281.38427734 C-458.85522129 294.83813714 -450.82271543 309.73720827 -444.75 325.75 C-444.09257813 324.25726562 -444.09257813 324.25726562 -443.421875 322.734375 C-435.82637329 305.85639223 -426.59439608 290.00311883 -414.75 275.75 C-414.28625977 275.18619629 -413.82251953 274.62239258 -413.34472656 274.04150391 C-404.02565624 262.74594405 -394.19118927 252.2753773 -382.70703125 243.140625 C-379.27114552 240.36286797 -375.94916485 237.4720639 -372.625 234.5625 C-365.08706385 227.98511949 -357.38362139 221.62084057 -349.63623047 215.29248047 C-347.99502542 213.95037155 -346.35843073 212.60262869 -344.72265625 211.25390625 C-338.07028594 205.77375978 -331.30709568 200.44345547 -324.51757812 195.13525391 C-322.83610423 193.81748003 -321.15930809 192.49404184 -319.484375 191.16796875 C-302.84389037 178.00523105 -285.89022268 165.25336073 -268.75 152.75 C-268.02280762 152.21842285 -267.29561523 151.6868457 -266.54638672 151.13916016 C-245.98822187 136.12777739 -224.99821723 121.76428485 -203.75 107.75 C-202.69377441 107.05229492 -201.63754883 106.35458984 -200.54931641 105.63574219 C-176.34096032 89.66179311 -151.76551382 74.42591661 -126.75 59.75 C-125.71842773 59.14269043 -124.68685547 58.53538086 -123.62402344 57.90966797 C-109.4903339 49.58891824 -95.24379616 41.48929073 -80.91308594 33.51318359 C-76.64292645 31.13288938 -72.3800859 28.73964907 -68.11743164 26.34594727 C-64.9780587 24.58524713 -61.83499477 22.8312849 -58.69140625 21.078125 C-54.91264373 18.96899154 -51.15068193 16.83456611 -47.40234375 14.671875 C-36.52094444 8.45020868 -25.64704165 3.69500442 -13.75 -0.25 C-8.96106036 -1.84631321 -4.57986662 -2.08175756 0 0 Z " fill="#EE9223" transform="translate(1639.75,412.25)"/>
<path d="M0 0 C6.69984761 5.86110349 12.74851221 12.03287188 17.21484375 19.765625 C17.90449219 18.93160156 18.59414062 18.09757812 19.3046875 17.23828125 C35.86237086 -2.66594697 52.81355332 -14.57179042 79.21484375 -17.234375 C105.05854597 -18.99035784 130.78901633 -13.82549183 150.90234375 3.390625 C166.21822275 18.00029632 173.03823851 36.04973272 174.21484375 56.765625 C174.34979184 62.78919617 174.3417549 68.8101734 174.32836914 74.83496094 C174.32808655 76.62981159 174.32824641 78.42466236 174.32881165 80.21951294 C174.3290968 85.0575013 174.32324579 89.89546452 174.31623769 94.73344707 C174.30995708 99.80229754 174.30939664 104.87114868 174.30821228 109.94000244 C174.30511279 119.52316907 174.29691813 129.1063242 174.28686279 138.68948579 C174.27565861 149.6061207 174.27018038 160.52275619 174.26516736 171.43939543 C174.25473428 193.88147853 174.23695866 216.32355063 174.21484375 238.765625 C165.30484375 238.765625 156.39484375 238.765625 147.21484375 238.765625 C147.21119812 236.47457825 147.20755249 234.18353149 147.20379639 231.82305908 C147.16753429 210.22340844 147.10930017 188.62389639 147.03094101 167.02435684 C146.99118251 155.92004412 146.9587738 144.81580194 146.94384766 133.71142578 C146.93081463 124.02946408 146.90380777 114.3476578 146.86023068 104.66578364 C146.83765309 99.54235381 146.82193085 94.4191154 146.8229599 89.29563141 C146.8237087 84.46597168 146.80566993 79.63673454 146.77367592 74.80718422 C146.76520863 73.04165641 146.76340527 71.27608103 146.76904106 69.51054192 C146.81519803 52.81788379 143.42234438 38.06869458 131.58984375 25.515625 C117.52919749 12.31412404 101.33033167 8.7917475 82.609375 9.37890625 C66.48606888 10.28208491 52.27386814 15.77069008 41.21484375 27.765625 C32.9143239 38.73978597 31.7402587 50.17268488 31.54711914 63.54418945 C31.51490625 65.09266466 31.48175564 66.6411206 31.44773197 68.18955708 C31.34714061 73.04798791 31.27741795 77.90657356 31.21484375 82.765625 C31.19941725 83.91714782 31.19941725 83.91714782 31.1836791 85.09193373 C31.03997752 95.99946245 30.96652358 106.90706263 30.91152072 117.81535125 C30.88906871 122.09398478 30.86198067 126.37258942 30.83546448 130.65119934 C30.78631204 138.68944224 30.74109905 146.72770183 30.69744211 154.76597625 C30.64739057 163.94438336 30.59273307 173.12276143 30.53776252 182.30114019 C30.42513757 201.12260809 30.31822013 219.94410418 30.21484375 238.765625 C21.63484375 238.765625 13.05484375 238.765625 4.21484375 238.765625 C4.20897751 236.53721863 4.20311127 234.30881226 4.19706726 232.01287842 C4.14034555 211.00188688 4.06723778 189.99099769 3.97912884 168.98011398 C3.93422436 158.17848437 3.89479738 147.37688734 3.8684082 136.57519531 C3.8453848 127.15694125 3.81193834 117.73879073 3.76614219 108.32061887 C3.7422685 103.33694772 3.72350141 98.35337876 3.71722984 93.36965179 C3.71115244 88.67137411 3.69105729 83.97335769 3.66056824 79.275177 C3.65183039 77.55802479 3.64805653 75.84083838 3.64983559 74.12366486 C3.66302818 55.50143056 0.03173312 38.73150763 -13.34765625 24.9453125 C-27.46669372 12.31963476 -44.05950351 8.87301423 -62.40234375 9.58642578 C-77.68023404 10.73539827 -90.46137739 18.91411304 -100.78515625 29.765625 C-108.54868035 39.07541117 -111.93656312 50.31816309 -111.92991638 62.30082703 C-111.93344323 63.0509781 -111.93697007 63.80112918 -111.94060379 64.5740121 C-111.9512622 67.08279498 -111.95496669 69.59153984 -111.95874023 72.1003418 C-111.96504742 73.90076863 -111.97181341 75.70119391 -111.97900391 77.50161743 C-111.993658 81.3757412 -112.00538884 85.24985901 -112.01495171 89.12399864 C-112.03040623 95.24527692 -112.05435277 101.36650357 -112.07984924 107.48774719 C-112.15105475 124.89292138 -112.21094193 142.29812444 -112.26196289 159.70336914 C-112.29022227 169.3182046 -112.32557376 178.93298798 -112.36861664 188.54776889 C-112.39544952 194.63791175 -112.4133168 200.72799573 -112.42465389 206.81818616 C-112.43375095 210.59863288 -112.45109794 214.37900763 -112.47083282 218.15941238 C-112.47833354 219.91786511 -112.48239089 221.67633625 -112.48282814 223.43480492 C-112.48390377 225.82713882 -112.49708845 228.21910278 -112.51341248 230.6113739 C-112.51079562 231.31418116 -112.50817877 232.01698841 -112.50548261 232.74109286 C-112.55694102 237.53740977 -112.55694102 237.53740977 -114.78515625 239.765625 C-117.09179688 240.00854492 -117.09179688 240.00854492 -119.94140625 239.99609375 C-120.96363281 239.99416016 -121.98585938 239.99222656 -123.0390625 239.99023438 C-124.11027344 239.97798828 -125.18148438 239.96574219 -126.28515625 239.953125 C-127.35636719 239.95248047 -128.42757813 239.95183594 -129.53125 239.95117188 C-137.50455397 239.90592614 -137.50455397 239.90592614 -139.78515625 238.765625 C-139.830744 206.95115128 -139.86615623 175.13668682 -139.88728691 143.32218809 C-139.88978844 139.56944695 -139.89237707 135.81670588 -139.89501953 132.06396484 C-139.89554415 131.31683577 -139.89606877 130.5697067 -139.89660929 129.79993735 C-139.90532096 117.68947438 -139.9210951 105.57903033 -139.93946184 93.46857859 C-139.95813975 81.04973383 -139.9692685 68.63089901 -139.97333324 56.21204078 C-139.97608269 48.54386979 -139.98477841 40.87575226 -140.00098918 33.20759772 C-140.01277294 27.33579372 -140.01407295 21.46401743 -140.01137161 15.59220123 C-140.01192426 13.17742711 -140.01593446 10.76265107 -140.0235672 8.34788895 C-140.03344197 5.06421677 -140.0311526 1.78077782 -140.02566528 -1.50289917 C-140.03149097 -2.46981056 -140.03731665 -3.43672195 -140.04331887 -4.43293369 C-140.03933677 -5.30776468 -140.03535467 -6.18259567 -140.03125191 -7.08393669 C-140.03239107 -8.22195852 -140.03239107 -8.22195852 -140.03355324 -9.38297069 C-139.78515625 -11.234375 -139.78515625 -11.234375 -137.78515625 -13.234375 C-135.37084961 -13.47729492 -135.37084961 -13.47729492 -132.375 -13.46484375 C-131.30314453 -13.46291016 -130.23128906 -13.46097656 -129.12695312 -13.45898438 C-128.00353516 -13.44673828 -126.88011719 -13.43449219 -125.72265625 -13.421875 C-124.03172852 -13.4209082 -124.03172852 -13.4209082 -122.30664062 -13.41992188 C-113.92528942 -13.37450817 -113.92528942 -13.37450817 -112.78515625 -12.234375 C-112.6289507 -10.82109553 -112.53459452 -9.4008291 -112.46875 -7.98046875 C-112.42685547 -7.12646484 -112.38496094 -6.27246094 -112.34179688 -5.39257812 C-112.30248047 -4.49474609 -112.26316406 -3.59691406 -112.22265625 -2.671875 C-112.17947266 -1.77017578 -112.13628906 -0.86847656 -112.09179688 0.06054688 C-111.98537483 2.29540985 -111.88335637 4.53038808 -111.78515625 6.765625 C-111.19089844 6.12496094 -110.59664062 5.48429687 -109.984375 4.82421875 C-82.06158975 -24.31448872 -31.10135572 -24.95087724 0 0 Z " fill="#000000" transform="translate(2152.78515625,1395.234375)"/>
<path d="M0 0 C8.58 0 17.16 0 26 0 C26 119.46 26 238.92 26 362 C17.42 362 8.84 362 0 362 C-0.33 348.47 -0.66 334.94 -1 321 C-4.63 324.96 -8.26 328.92 -12 333 C-41.02594874 358.93808185 -75.58266947 368.97705974 -114 367 C-133.39777543 365.51025085 -152.12134929 359.58029518 -169 350 C-169.98226562 349.44570312 -170.96453125 348.89140625 -171.9765625 348.3203125 C-179.6511329 343.69787673 -186.34616224 337.9582196 -193 332 C-194.09634766 331.03126953 -194.09634766 331.03126953 -195.21484375 330.04296875 C-212.4361964 313.8781408 -222.81110651 291.41664273 -229 269 C-229.19207031 268.3188916 -229.38414062 267.6377832 -229.58203125 266.93603516 C-235.08528 246.32510832 -233.98244797 220.34669708 -228 200 C-227.78569336 199.2682959 -227.57138672 198.5365918 -227.35058594 197.78271484 C-217.39781769 165.01970844 -196.23393395 138.41978173 -166.18359375 121.87109375 C-148.08564974 112.23258636 -128.49665815 106.92640263 -108 106 C-107.16984375 105.95875 -106.3396875 105.9175 -105.484375 105.875 C-69.08314002 104.98171816 -34.53500237 119.20674576 -8.17382812 143.97729492 C-5.74912959 146.28625513 -3.36761715 148.63238285 -1 151 C-0.67 101.17 -0.34 51.34 0 0 Z M-181.640625 168.43798828 C-199.53879917 189.00417333 -208.71404999 216.89658446 -207 244 C-204.75174058 265.00347614 -197.10568226 286.01970637 -183 302 C-182.33613281 302.7940625 -181.67226563 303.588125 -180.98828125 304.40625 C-163.08369923 325.23599712 -137.41989895 338.48832931 -110 341 C-81.46561617 343.00725113 -54.14173635 333.82012381 -32.48046875 315.23046875 C-31.66191406 314.49441406 -30.84335938 313.75835938 -30 313 C-29.23300781 312.31550781 -28.46601562 311.63101563 -27.67578125 310.92578125 C-10.07160669 294.30473686 2.40494735 268.92908334 3.23828125 244.578125 C3.78124083 213.71747638 -5.08993709 187.88678968 -26 165 C-26.65613281 164.26136719 -27.31226563 163.52273438 -27.98828125 162.76171875 C-41.84168733 147.95904288 -60.68562067 139.11323869 -80 134 C-81.32451172 133.63068359 -81.32451172 133.63068359 -82.67578125 133.25390625 C-119.25201963 124.79528653 -157.19454388 141.63292749 -181.640625 168.43798828 Z " fill="#000000" transform="translate(1065,1272)"/>
<path d="M0 0 C3.73312484 3.64080645 6.85764135 7.70121459 9.94946289 11.89282227 C11.10211605 13.44728281 12.31021255 14.96033435 13.52734375 16.46484375 C14.18734375 16.46484375 14.84734375 16.46484375 15.52734375 16.46484375 C16.79655988 14.84406072 17.99236996 13.16552245 19.15234375 11.46484375 C30.91184094 -4.95645411 47.22943143 -14.77222337 67.08984375 -18.34765625 C91.09503171 -22.15613473 118.56961585 -19.58663189 139.04296875 -5.44140625 C156.43583811 7.90406584 167.40893712 24.57554681 170.52734375 46.46484375 C170.61548384 49.11918406 170.65830646 51.74601196 170.64759827 54.39950562 C170.6488799 55.57100786 170.6488799 55.57100786 170.65018743 56.76617682 C170.65182959 59.37327561 170.64634162 61.98030952 170.64086914 64.58740234 C170.64058697 66.46018472 170.64074559 68.3329672 170.64131165 70.20574951 C170.64159845 75.28375436 170.6357205 80.36173558 170.62873769 85.43973494 C170.6224848 90.74885405 170.62189882 96.05797372 170.62071228 101.36709595 C170.61760468 111.41795287 170.60939897 121.46879892 170.59936279 131.51965106 C170.58818394 142.96334367 170.58268673 154.4070368 170.57766736 165.85073352 C170.5672159 189.3887765 170.54942596 212.92680906 170.52734375 236.46484375 C161.94734375 236.46484375 153.36734375 236.46484375 144.52734375 236.46484375 C144.51854439 233.06585785 144.51854439 233.06585785 144.50956726 229.59820557 C144.45284844 208.2340276 144.37974214 186.86995033 144.29162884 165.50587845 C144.24672213 154.52264619 144.20729565 143.53944599 144.1809082 132.55615234 C144.15788661 122.97968614 144.12444217 113.40332182 144.07864219 103.82693648 C144.05476607 98.75942855 144.03600056 93.69202116 144.02972984 88.62445831 C144.02365356 83.84738807 144.00356234 79.0705749 143.97306824 74.29360008 C143.96432862 72.54742154 143.96055691 70.80120935 143.96233559 69.05500984 C143.97507611 50.7634812 140.80519506 36.37334712 127.80859375 22.68359375 C116.89864699 12.07254964 103.66615298 7.04383326 88.52734375 7.15234375 C87.71209229 7.1565332 86.89684082 7.16072266 86.05688477 7.16503906 C69.77836185 7.46086916 53.12206705 10.6647247 40.80859375 22.0546875 C31.00245334 32.68634483 28.38891459 46.39879029 28.36912537 60.41223145 C28.36418739 61.17044048 28.35924941 61.92864951 28.3541618 62.70983458 C28.33891304 65.22777832 28.33046077 67.74569682 28.32202148 70.26367188 C28.31243301 72.07763894 28.30242237 73.89160381 28.29202271 75.70556641 C28.26507258 80.61401298 28.24400968 85.52246907 28.22402072 90.43094826 C28.2020999 95.5665725 28.17474113 100.70216774 28.14796448 105.83776855 C28.09811982 115.55562766 28.05315058 125.27350294 28.00994211 134.99139357 C27.96049928 146.05789314 27.90560735 157.12436361 27.85026252 168.190835 C27.73656883 190.94881093 27.62989576 213.70681512 27.52734375 236.46484375 C18.61734375 236.46484375 9.70734375 236.46484375 0.52734375 236.46484375 C0.52187531 233.06918877 0.52187531 233.06918877 0.51629639 229.60493469 C0.48002387 208.2557692 0.42177832 186.9067438 0.34344101 165.55769062 C0.30369367 154.58232197 0.27127931 143.60702458 0.25634766 132.6315918 C0.24330882 123.06132101 0.21628725 113.49120729 0.17273068 103.92102498 C0.15016608 98.85736656 0.13443007 93.79390152 0.1354599 88.73018837 C0.13620947 83.95551579 0.11814003 79.18126986 0.08617592 74.40670776 C0.07771827 72.66256344 0.0758986 70.91837102 0.08154106 69.17421532 C0.13112237 51.47905304 -3.67080146 36.42353616 -16.16015625 23.15234375 C-29.88504236 10.17836326 -45.1137754 6.91208012 -63.34765625 7.19140625 C-77.10127662 7.70361704 -90.7091344 13.7013219 -100.47265625 23.46484375 C-113.36761305 39.46976072 -115.92588033 54.5422971 -115.9050293 74.57763672 C-115.91406667 76.35308505 -115.92439866 78.12852719 -115.93591309 79.90396118 C-115.96327747 84.67985625 -115.97273938 89.45563228 -115.97876716 94.23159552 C-115.98820485 99.23908974 -116.01441224 104.24649691 -116.03877258 109.25393677 C-116.08229373 118.71659955 -116.11092879 128.1792453 -116.13409597 137.64197743 C-116.16122512 148.42328414 -116.20513162 159.20450265 -116.25038469 169.98574615 C-116.34302476 192.14539927 -116.41420455 214.30507633 -116.47265625 236.46484375 C-125.05265625 236.46484375 -133.63265625 236.46484375 -142.47265625 236.46484375 C-142.47265625 153.30484375 -142.47265625 70.14484375 -142.47265625 -15.53515625 C-133.89265625 -15.53515625 -125.31265625 -15.53515625 -116.47265625 -15.53515625 C-116.14265625 -8.93515625 -115.81265625 -2.33515625 -115.47265625 4.46484375 C-112.50265625 0.99984375 -112.50265625 0.99984375 -109.47265625 -2.53515625 C-78.72875463 -28.14834105 -30.10358743 -24.63907885 0 0 Z " fill="#000000" transform="translate(208.47265625,1397.53515625)"/>
<path d="M0 0 C0.71671875 0.60457031 1.4334375 1.20914062 2.171875 1.83203125 C2.80609375 2.34378906 3.4403125 2.85554688 4.09375 3.3828125 C28.18227534 23.15458883 43.0411828 55.70433025 46.484375 86.26953125 C49.9788478 122.08692055 39.88930392 156.85413422 17.171875 184.83203125 C-3.37296895 209.45644171 -33.58064294 228.16090563 -65.97460938 231.61669922 C-84.66639546 233.02721901 -103.71195562 233.02943298 -121.828125 227.83203125 C-122.49360352 227.6501123 -123.15908203 227.46819336 -123.84472656 227.28076172 C-155.18174284 218.54480726 -182.33923415 196.62836116 -198.828125 168.83203125 C-201.75489318 163.62107864 -204.36197802 158.27411933 -206.828125 152.83203125 C-207.31152344 151.76597656 -207.79492188 150.69992187 -208.29296875 149.6015625 C-221.63893788 117.59557575 -219.29644582 80.49248765 -206.48852539 48.84033203 C-193.37522503 17.78072685 -168.47716552 -6.41979888 -137.828125 -20.16796875 C-91.50570085 -38.93210771 -38.56002828 -31.94433716 0 0 Z M-165.828125 34.83203125 C-184.15282267 57.76689811 -191.74656096 84.71017331 -189.828125 113.83203125 C-186.51979048 142.2073619 -170.76600746 167.10977222 -148.828125 184.83203125 C-124.69751067 201.95600913 -95.77254777 209.40432558 -66.44921875 204.578125 C-48.11544476 200.80061601 -32.30941502 193.84798005 -17.828125 181.83203125 C-16.97863281 181.14625 -16.12914062 180.46046875 -15.25390625 179.75390625 C3.62635544 163.74866086 16.75313122 139.56563697 19.171875 114.83203125 C19.93082837 99.44229354 19.81583818 84.60967568 15.171875 69.83203125 C14.82125 68.7028125 14.470625 67.57359375 14.109375 66.41015625 C8.93333414 51.6728177 0.68928001 39.23800351 -9.828125 27.83203125 C-10.40949219 27.16945313 -10.99085938 26.506875 -11.58984375 25.82421875 C-29.10989962 6.84783582 -55.55458423 -2.46862504 -80.6953125 -4.38671875 C-113.46344672 -5.47596421 -144.61793011 10.4601155 -165.828125 34.83203125 Z " fill="#EE9223" transform="translate(1716.828125,1407.16796875)"/>
<path d="M0 0 C12.76282834 11.89573404 20.60702369 26.36998079 24.70703125 43.30078125 C24.86204102 43.93918945 25.01705078 44.57759766 25.17675781 45.23535156 C28.07523441 58.11115499 28.8112138 70.79413289 28.74658203 83.92944336 C28.74601624 85.567103 28.74633774 87.20476314 28.74746704 88.84242249 C28.74803502 93.23813403 28.73637189 97.63373382 28.72231913 102.02941966 C28.70971798 106.64180463 28.70863394 111.25419287 28.70626831 115.86659241 C28.70008088 124.57844521 28.68370755 133.29024713 28.66356933 142.00207764 C28.64112457 151.92967805 28.63019544 161.85728103 28.62017846 171.78490055 C28.59933855 192.1860565 28.56380806 212.58716385 28.51953125 232.98828125 C19.93953125 232.98828125 11.35953125 232.98828125 2.51953125 232.98828125 C2.51366501 230.98617584 2.50779877 228.98407043 2.50175476 226.92129517 C2.44491666 208.00185892 2.37175047 189.08253517 2.28381634 170.16321754 C2.23900149 160.43792434 2.19955449 150.71266659 2.1730957 140.98730469 C2.14999901 132.5028838 2.11647266 124.01857646 2.07082969 115.53424585 C2.04705357 111.04893314 2.02822323 106.5637318 2.02191734 102.0783577 C2.0157949 97.84132659 1.99554314 93.60457984 1.96525574 89.3676548 C1.95658851 87.82718075 1.95272886 86.28666934 1.95452309 84.74617195 C1.96106473 76.52494991 1.49438162 68.57539706 0.16438293 60.45272827 C0.04624636 59.73048242 -0.07189021 59.00823657 -0.19360667 58.26410449 C-2.86159938 43.32629284 -9.39368412 27.66743675 -21.48046875 17.98828125 C-40.41226064 4.94708018 -62.52212534 1.74158362 -84.96484375 5.30078125 C-102.63064864 8.75542754 -117.15242561 16.80670217 -127.890625 31.51171875 C-137.85797066 47.03824737 -140.05617331 64.97099643 -140.1953125 83.05078125 C-140.22206801 84.73480332 -140.25020095 86.41880392 -140.27952576 88.1027832 C-140.35721722 92.95572869 -140.40691361 97.80862436 -140.45009613 102.6619873 C-140.48245694 106.20602015 -140.52001472 109.74997289 -140.55841064 113.29394531 C-140.74401541 130.67334548 -140.87975446 148.05291927 -140.99788129 165.4328928 C-141.04822236 172.82176445 -141.1027719 180.21060356 -141.15754998 187.59944344 C-141.269627 202.72902652 -141.37625813 217.85864155 -141.48046875 232.98828125 C-150.06046875 232.98828125 -158.64046875 232.98828125 -167.48046875 232.98828125 C-167.48046875 149.82828125 -167.48046875 66.66828125 -167.48046875 -19.01171875 C-158.90046875 -19.01171875 -150.32046875 -19.01171875 -141.48046875 -19.01171875 C-141.15046875 -10.43171875 -140.82046875 -1.85171875 -140.48046875 6.98828125 C-137.84046875 3.68828125 -135.20046875 0.38828125 -132.48046875 -3.01171875 C-99.24927151 -33.49156201 -32.89768005 -29.20649576 0 0 Z " fill="#000000" transform="translate(738.48046875,1401.01171875)"/>
<path d="M0 0 C4.67169828 3.61590827 8.38628728 7.3362946 12.08203125 11.921875 C11.63811035 12.30520996 11.19418945 12.68854492 10.73681641 13.08349609 C8.7261966 14.82049059 6.71660333 16.55866849 4.70703125 18.296875 C4.00835938 18.90015625 3.3096875 19.5034375 2.58984375 20.125 C1.91953125 20.70507812 1.24921875 21.28515625 0.55859375 21.8828125 C-0.05935059 22.41696777 -0.67729492 22.95112305 -1.31396484 23.50146484 C-2.55391035 24.5994866 -3.74683327 25.75073952 -4.91796875 26.921875 C-9.32357019 26.35669381 -12.66961163 23.62197573 -16.29296875 21.234375 C-34.19573808 9.75955432 -53.15178746 4.65156143 -74.40234375 8.64453125 C-84.22602253 10.88980676 -92.08230317 14.49258027 -97.91796875 22.921875 C-102.94823198 32.67650706 -104.89255797 43.0746733 -102.1640625 53.91796875 C-96.99522953 67.23531487 -88.23719521 73.91899464 -75.53515625 79.55859375 C-67.57538331 82.96800494 -59.48597395 86.06784812 -51.41854858 89.21157837 C-39.74506408 93.76107412 -28.21478215 98.49000376 -16.91796875 103.921875 C-16.2312207 104.24430176 -15.54447266 104.56672852 -14.83691406 104.89892578 C3.81815118 113.73435836 15.83419469 127.06024379 23.0546875 146.546875 C28.5798289 164.6385008 25.82565837 185.88622175 17.19287109 202.42163086 C14.54647299 207.27536284 11.78936646 211.79681188 8.08203125 215.921875 C7.38851563 216.71851563 6.695 217.51515625 5.98046875 218.3359375 C-8.36272343 233.80042158 -31.1505616 241.79128144 -51.97265625 243.0456543 C-80.62644114 244.08499359 -106.05525867 235.93947678 -127.4296875 216.359375 C-135.07074852 209.04059002 -142.75650049 199.67590467 -146.91796875 189.921875 C-145.69953184 186.26656427 -144.754398 185.92769349 -141.515625 184.00390625 C-140.62552734 183.47216797 -139.73542969 182.94042969 -138.81835938 182.39257812 C-137.41360352 181.57176758 -137.41360352 181.57176758 -135.98046875 180.734375 C-135.04783203 180.17556641 -134.11519531 179.61675781 -133.15429688 179.04101562 C-126.19853194 174.921875 -126.19853194 174.921875 -123.91796875 174.921875 C-122.27667308 177.22629013 -120.74274135 179.53496398 -119.23046875 181.921875 C-108.33128684 198.56881654 -94.37835736 209.51860182 -74.69921875 214.35546875 C-57.03586301 217.95264092 -35.47447636 215.79573183 -19.90234375 206.3046875 C-10.92217731 200.04685498 -5.17447924 190.5457173 -2.96484375 179.84375 C-0.89324059 167.3889938 -2.60954734 155.34069957 -9.41796875 144.54296875 C-21.16753853 128.46890453 -40.72787866 122.87736903 -58.54296875 116.046875 C-81.2906178 107.31304173 -81.2906178 107.31304173 -91.99609375 102.6015625 C-93.07185165 102.13231857 -93.07185165 102.13231857 -94.16934204 101.65359497 C-100.37278774 98.87346507 -105.7453265 95.34561618 -110.91796875 90.921875 C-111.64242188 90.30828125 -112.366875 89.6946875 -113.11328125 89.0625 C-123.82886465 79.20253352 -129.52084708 65.7667906 -130.296875 51.375 C-130.62657275 40.64267878 -130.39378593 30.8356009 -125.91796875 20.921875 C-125.28181641 19.50068359 -125.28181641 19.50068359 -124.6328125 18.05078125 C-121.12620437 11.00826186 -116.44221886 5.47474817 -110.91796875 -0.078125 C-110.32628906 -0.70460938 -109.73460937 -1.33109375 -109.125 -1.9765625 C-100.47712327 -10.41444664 -87.64056468 -15.79768431 -75.91796875 -18.078125 C-75.00789063 -18.25988281 -74.0978125 -18.44164062 -73.16015625 -18.62890625 C-47.11893725 -22.23702696 -21.251699 -15.13507881 0 0 Z " fill="#000000" transform="translate(1288.91796875,1397.078125)"/>
<path d="M0 0 C8.91 0 17.82 0 27 0 C27 36.3 27 72.6 27 110 C46.47 110 65.94 110 86 110 C86 118.58 86 127.16 86 136 C66.53 136 47.06 136 27 136 C27 210.58 27 285.16 27 362 C18.42 362 9.84 362 1 362 C1 287.75 1 213.5 1 137 C-10.22 137 -21.44 137 -33 137 C-33 128.09 -33 119.18 -33 110 C-22.11 110 -11.22 110 0 110 C0 73.7 0 37.4 0 0 Z " fill="#000000" transform="translate(1379,1272)"/>
<path d="M0 0 C2.29048961 1.45570274 4.45322894 2.98246592 6.59375 4.6484375 C4.96881074 9.35893558 2.44663492 13.27082154 -0.28125 17.3984375 C-0.71566406 18.08292969 -1.15007812 18.76742188 -1.59765625 19.47265625 C-2.02691406 20.12363281 -2.45617188 20.77460937 -2.8984375 21.4453125 C-3.28370605 22.03666992 -3.66897461 22.62802734 -4.06591797 23.23730469 C-5.8208854 25.08497532 -6.87128433 25.43972678 -9.40625 25.6484375 C-11.64526367 24.89160156 -11.64526367 24.89160156 -14.07421875 23.6640625 C-14.96818359 23.22320313 -15.86214844 22.78234375 -16.78320312 22.328125 C-17.71068359 21.85632812 -18.63816406 21.38453125 -19.59375 20.8984375 C-33.44305441 13.93938319 -46.93178601 8.68637797 -62.40625 13.6484375 C-77.68849446 19.98328619 -87.01925846 32.40375727 -93.9375 47.0234375 C-98.35464316 57.92532274 -100.50249 69.19225541 -100.56446838 80.95043945 C-100.56940636 81.6392281 -100.57434434 82.32801674 -100.57943195 83.03767776 C-100.59465734 85.32068923 -100.60312646 87.60367293 -100.61157227 89.88671875 C-100.62116259 91.53320047 -100.63117333 93.17967979 -100.64157104 94.82615662 C-100.66850114 99.2780048 -100.68957476 103.72986345 -100.70957303 108.18174744 C-100.73150635 112.84091071 -100.75885896 117.50004215 -100.78562927 122.15917969 C-100.83545715 130.97393007 -100.88043255 139.78869821 -100.92365164 148.6034832 C-100.97310889 158.64219283 -101.02799543 168.6808705 -101.08333123 178.71954918 C-101.19699913 199.36248215 -101.30387101 220.00544566 -101.40625 240.6484375 C-109.63425097 243.39110449 -118.73317545 241.6484375 -127.40625 241.6484375 C-127.40625 158.1584375 -127.40625 74.6684375 -127.40625 -11.3515625 C-119.15625 -11.3515625 -110.90625 -11.3515625 -102.40625 -11.3515625 C-101.02316219 -8.58538687 -101.29414804 -6.3413825 -101.30859375 -3.25 C-101.31181641 -2.03828125 -101.31503906 -0.8265625 -101.31835938 0.421875 C-101.32673828 1.69289063 -101.33511719 2.96390625 -101.34375 4.2734375 C-101.34826172 5.5521875 -101.35277344 6.8309375 -101.35742188 8.1484375 C-101.36923797 11.31515042 -101.38571185 14.48177106 -101.40625 17.6484375 C-97.67076168 14.02757607 -94.33250828 10.22648606 -91.03125 6.2109375 C-66.55394944 -22.92018255 -30.12261626 -17.89542525 0 0 Z " fill="#000000" transform="translate(1951.40625,1393.3515625)"/>
<path d="M0 0 C8.58 0 17.16 0 26 0 C26 83.16 26 166.32 26 252 C17.42 252 8.84 252 0 252 C0 168.84 0 85.68 0 0 Z " fill="#000000" transform="translate(463,1382)"/>
<path d="M0 0 C1.02035591 -0.0098568 1.02035591 -0.0098568 2.06132507 -0.01991272 C4.30618413 -0.0395766 6.55097647 -0.05129338 8.79589844 -0.0612793 C9.56555687 -0.06535482 10.3352153 -0.06943035 11.12819672 -0.07362938 C15.20281198 -0.09446162 19.27739385 -0.10877507 23.35205078 -0.11816406 C27.5461804 -0.12921699 31.73977782 -0.16361168 35.93371964 -0.20333576 C39.17151837 -0.22956413 42.40919149 -0.23786142 45.6470871 -0.24144554 C47.19235576 -0.24629619 48.73761938 -0.25786656 50.28278351 -0.27648354 C65.64326292 -0.45003905 65.64326292 -0.45003905 70.74490356 2.74861145 C76.27933586 8.3537585 75.59724126 17.37257113 75.55371094 24.67700195 C75.55658112 25.75272461 75.55945129 26.82844727 75.56240845 27.93676758 C75.56443956 30.19914276 75.5589768 32.46153589 75.54638672 34.72387695 C75.53032016 38.16698856 75.54626874 41.60892642 75.56542969 45.05200195 C75.56344709 47.26033785 75.55960307 49.46867303 75.55371094 51.67700195 C75.55978363 52.69600586 75.56585632 53.71500977 75.57211304 54.76489258 C75.51233995 60.90439689 74.98736624 66.627617 72.15527344 72.17700195 C66.83178444 76.80612282 61.8770478 77.30127949 55.0390625 77.30639648 C53.82720276 77.30954865 52.61534302 77.31270081 51.36676025 77.31594849 C50.06462585 77.31392426 48.76249146 77.31190002 47.42089844 77.30981445 C46.05954979 77.31048897 44.69820126 77.31146023 43.33685303 77.31271362 C40.48562471 77.31418563 37.63442778 77.31205335 34.78320312 77.30737305 C31.1510376 77.30169779 27.51894635 77.30494389 23.8867836 77.31094551 C21.074437 77.31458314 18.26210759 77.31339755 15.44976044 77.31081772 C13.46636405 77.30983694 11.48296696 77.31284591 9.49957275 77.31594849 C-10.20643185 77.26521913 -10.20643185 77.26521913 -15.84472656 72.17700195 C-18.68465186 66.3161251 -18.15044265 59.914838 -18.14550781 53.55200195 C-18.14979294 52.33174316 -18.15407806 51.11148437 -18.15849304 49.85424805 C-18.16422616 47.27889628 -18.16474413 44.70352832 -18.16040039 42.12817383 C-18.15723784 38.19104407 -18.18072268 34.25466403 -18.20605469 30.31762695 C-18.20832752 27.81241957 -18.20903125 25.30721016 -18.20800781 22.80200195 C-18.21721756 21.62686035 -18.22642731 20.45171875 -18.23591614 19.2409668 C-18.17813336 9.0241125 -18.17813336 9.0241125 -14.84472656 4.17700195 C-10.36818621 -0.01072934 -5.93611034 0.04757513 0 0 Z M-1.84472656 13.17700195 C-1.84472656 30.00700195 -1.84472656 46.83700195 -1.84472656 64.17700195 C18.28527344 64.17700195 38.41527344 64.17700195 59.15527344 64.17700195 C59.15527344 47.34700195 59.15527344 30.51700195 59.15527344 13.17700195 C39.02527344 13.17700195 18.89527344 13.17700195 -1.84472656 13.17700195 Z " fill="#000000" transform="translate(1879.8447265625,1706.822998046875)"/>
<path d="M0 0 C1.19844543 -0.01283524 2.39689087 -0.02567047 3.63165283 -0.03889465 C5.57693878 -0.04997505 5.57693878 -0.04997505 7.56152344 -0.0612793 C8.22302147 -0.06535482 8.8845195 -0.06943035 9.56606293 -0.07362938 C13.06894109 -0.09447211 16.57178032 -0.10878026 20.07470703 -0.11816406 C23.68047697 -0.12921134 27.28562687 -0.16359578 30.89117813 -0.20333576 C33.67428683 -0.22956968 36.45724944 -0.23786193 39.24047089 -0.24144554 C41.21185619 -0.24864359 43.18314136 -0.27505471 45.15435791 -0.30183411 C52.01914742 -0.2852507 56.67145204 -0.1115706 62.17089844 4.17700195 C65.44386346 8.82250069 65.8923894 12.67563339 65.17089844 18.17700195 C61.41935709 21.9285433 56.22806828 21.85748578 51.17089844 22.17700195 C50.18089844 18.21700195 50.18089844 18.21700195 49.17089844 14.17700195 C45.98259303 13.3799256 43.70220831 13.0333733 40.49414062 12.97167969 C39.57348816 12.95173447 38.65283569 12.93178925 37.70428467 12.91123962 C36.71873596 12.89452713 35.73318726 12.87781464 34.71777344 12.8605957 C33.70241516 12.83981461 32.68705688 12.81903351 31.64093018 12.79762268 C28.40098771 12.73229598 25.16096495 12.67332059 21.92089844 12.61450195 C19.7229735 12.57130069 17.52505666 12.52768588 15.32714844 12.48364258 C9.94181383 12.37663183 4.55639854 12.27531673 -0.82910156 12.17700195 C-0.82910156 18.44700195 -0.82910156 24.71700195 -0.82910156 31.17700195 C0.86617676 31.1612915 2.56145508 31.14558105 4.30810547 31.12939453 C9.92391479 31.0809211 15.53969395 31.04650328 21.15565681 31.02156544 C24.55896875 31.00594279 27.96205329 30.98476761 31.36523438 30.95068359 C35.2821984 30.91170161 39.19907195 30.89726455 43.11621094 30.8840332 C44.9399675 30.86080742 44.9399675 30.86080742 46.80056763 30.83711243 C57.44964553 30.83499711 57.44964553 30.83499711 62.17089844 34.17700195 C68.45194408 42.19074984 66.72037051 55.41219008 65.93261719 65.1105957 C65.29562858 68.92609309 64.22381627 71.56485863 61.42089844 74.17700195 C56.56346012 77.16619476 51.90183951 77.29956057 46.29248047 77.33813477 C45.15755157 77.34774231 44.02262268 77.35734985 42.853302 77.36724854 C41.03437943 77.37362335 41.03437943 77.37362335 39.17871094 77.38012695 C37.91880341 77.38582703 36.65889587 77.3915271 35.36080933 77.3973999 C32.69965001 77.40683116 30.03860295 77.41373802 27.37744141 77.41723633 C23.98607145 77.42271872 20.5951034 77.44675887 17.20385933 77.47520828 C13.94550755 77.49842997 10.68713384 77.50028984 7.42871094 77.50512695 C6.22014435 77.51747375 5.01157776 77.52982056 3.76638794 77.5425415 C-3.86973528 77.52246081 -10.3778486 77.27553253 -16.31347656 71.9465332 C-18.26458306 68.38123808 -18.23009967 65.90370122 -18.07910156 61.86450195 C-18.04300781 60.61024414 -18.00691406 59.35598633 -17.96972656 58.0637207 C-17.92332031 57.11110352 -17.87691406 56.15848633 -17.82910156 55.17700195 C-16.43492383 54.83681044 -15.03865498 54.50518416 -13.64160156 54.17700195 C-12.86429687 53.99137695 -12.08699219 53.80575195 -11.28613281 53.61450195 C-8.82910156 53.17700195 -8.82910156 53.17700195 -3.82910156 53.17700195 C-3.82910156 56.80700195 -3.82910156 60.43700195 -3.82910156 64.17700195 C14.32089844 64.17700195 32.47089844 64.17700195 51.17089844 64.17700195 C51.17089844 57.57700195 51.17089844 50.97700195 51.17089844 44.17700195 C49.5111499 44.1927124 47.85140137 44.20842285 46.14135742 44.22460938 C39.97083406 44.27899802 33.80033182 44.31338494 27.62963867 44.34179688 C24.96116772 44.35516556 22.29318126 44.37731801 19.62475586 44.40332031 C15.78460592 44.4397978 11.94478406 44.45675054 8.10449219 44.4699707 C6.32128822 44.49319649 6.32128822 44.49319649 4.50205994 44.51689148 C-1.6966889 44.51814487 -6.42345445 44.34880966 -11.82910156 41.17700195 C-14.97767285 36.72736815 -15.38845965 32.24240717 -15.57910156 26.92700195 C-15.61076416 26.17628418 -15.64242676 25.42556641 -15.67504883 24.65209961 C-16.21396481 9.36798094 -16.21396481 9.36798094 -11.95410156 4.11450195 C-8.35521762 0.27147262 -5.11716429 0.04770834 0 0 Z " fill="#000000" transform="translate(82.8291015625,1706.822998046875)"/>
<path d="M0 0 C1.3066713 -0.00145523 2.61334259 -0.00291046 3.95960999 -0.00440979 C6.71929189 -0.00579036 9.47845193 0.00670378 12.23803711 0.02954102 C15.75963406 0.05789755 19.28036299 0.05519176 22.80202389 0.0424509 C26.18060517 0.03378598 29.55893329 0.04895643 32.9375 0.0625 C34.82371315 0.05809654 34.82371315 0.05809654 36.74803162 0.05360413 C43.07572047 0.12154461 48.00982276 0.27639206 53.53515625 3.49609375 C57.04930885 7.1904593 57.76415059 9.92076045 57.78515625 14.87109375 C57.72144996 16.41369612 57.64472321 17.95606919 57.53515625 19.49609375 C55.95402705 20.00302067 54.37014242 20.50135818 52.78515625 20.99609375 C51.9034375 21.27453125 51.02171875 21.55296875 50.11328125 21.83984375 C47.53515625 22.49609375 47.53515625 22.49609375 43.53515625 22.49609375 C43.41398437 21.93019531 43.2928125 21.36429688 43.16796875 20.78125 C43.00039062 20.04777344 42.8328125 19.31429688 42.66015625 18.55859375 C42.49773438 17.82769531 42.3353125 17.09679688 42.16796875 16.34375 C41.70554102 14.28909081 41.70554102 14.28909081 39.53515625 13.49609375 C37.9937345 13.37786404 36.44754528 13.31909564 34.90185547 13.29077148 C33.46058792 13.26085365 33.46058792 13.26085365 31.99020386 13.23033142 C30.95058502 13.21361893 29.91096619 13.19690643 28.83984375 13.1796875 C27.77726349 13.1589064 26.71468323 13.13812531 25.61990356 13.11671448 C22.21672187 13.05119114 18.81346136 12.99232102 15.41015625 12.93359375 C13.10676259 12.89041118 10.80337699 12.84679698 8.5 12.80273438 C2.84513341 12.69550688 -2.80981267 12.59424726 -8.46484375 12.49609375 C-8.46484375 18.76609375 -8.46484375 25.03609375 -8.46484375 31.49609375 C-6.73403564 31.4803833 -5.00322754 31.46467285 -3.2199707 31.44848633 C2.50760539 31.40005192 8.23515198 31.36561272 13.96287823 31.34065723 C17.43459735 31.32502132 20.90609428 31.30382163 24.37768555 31.26977539 C28.37160337 31.23085312 32.36528888 31.21636746 36.359375 31.203125 C37.60224777 31.18764114 38.84512054 31.17215729 40.12565613 31.15620422 C41.28648209 31.15597763 42.44730804 31.15575104 43.64331055 31.15551758 C45.17220161 31.14552483 45.17220161 31.14552483 46.73197937 31.1353302 C50.84149402 31.66421694 53.48535619 33.37130798 56.28515625 36.37109375 C59.51141862 41.85573978 58.75413987 48.71434265 58.78515625 54.87109375 C58.80578125 55.886875 58.82640625 56.90265625 58.84765625 57.94921875 C58.8786935 63.92388989 58.48335827 68.25169592 55.53515625 73.49609375 C49.01622266 78.92853841 39.13187215 77.66937896 31.13671875 77.69921875 C29.94718597 77.70491882 28.7576532 77.7106189 27.53207397 77.7164917 C25.02236818 77.72591253 22.51265019 77.73246404 20.00292969 77.73632812 C16.18011801 77.74604302 12.35784218 77.77709891 8.53515625 77.80859375 C6.08984692 77.81512382 3.64453377 77.82037427 1.19921875 77.82421875 C-0.50275162 77.84273895 -0.50275162 77.84273895 -2.23910522 77.8616333 C-9.15412129 77.84237988 -16.36811037 77.63397446 -22.08334351 73.25640869 C-25.86161791 69.29676977 -26.38169818 65.7342648 -26.46484375 60.49609375 C-26.02734375 57.62109375 -26.02734375 57.62109375 -24.46484375 55.49609375 C-20.12955643 53.63950209 -16.16876795 53.49609375 -11.46484375 53.49609375 C-11.46484375 57.12609375 -11.46484375 60.75609375 -11.46484375 64.49609375 C7.01515625 64.49609375 25.49515625 64.49609375 44.53515625 64.49609375 C44.20515625 58.22609375 43.87515625 51.95609375 43.53515625 45.49609375 C41.03767822 45.47421997 41.03767822 45.47421997 38.48974609 45.4519043 C32.30593508 45.39388426 26.12248677 45.3166505 19.93896484 45.23364258 C17.26379411 45.19877373 14.58891987 45.17237494 11.91357422 45.1496582 C8.06577837 45.11608108 4.21862136 45.06376096 0.37109375 45.0078125 C-0.82287018 45.00142258 -2.01683411 44.99503265 -3.24697876 44.9884491 C-13.65322701 44.8046521 -13.65322701 44.8046521 -18.46484375 41.49609375 C-23.58246829 36.02552959 -22.67976087 29.17275363 -22.71484375 22.12109375 C-22.73546875 21.09242187 -22.75609375 20.06375 -22.77734375 19.00390625 C-22.82859489 9.06118459 -22.82859489 9.06118459 -19.46484375 4.49609375 C-13.76341434 -0.83450103 -7.46957381 -0.0666241 0 0 Z " fill="#000000" transform="translate(2268.46484375,1706.50390625)"/>
<path d="M0 0 C6.0974092 -0.02506049 12.19478722 -0.04302721 18.29223633 -0.05493164 C20.3586479 -0.05990399 22.42505607 -0.06668423 24.49145508 -0.07543945 C69.65119689 -0.26173298 69.65119689 -0.26173298 81.6875 10.375 C90.60303155 20.49533311 92.41464871 30.11737695 92.2734375 43.43359375 C91.56567742 52.66480739 87.59105991 60.53496418 81 67 C69.24539515 76.02832675 56.05287177 77.15864764 41.7578125 77.1328125 C40.59369843 77.13376923 39.42958435 77.13472595 38.23019409 77.13571167 C35.78106634 77.13638993 33.33193676 77.13456039 30.8828125 77.13037109 C27.11714708 77.12498878 23.35159937 77.13034292 19.5859375 77.13671875 C17.2057289 77.13605848 14.82552038 77.13477837 12.4453125 77.1328125 C10.74702805 77.13584885 10.74702805 77.13584885 9.01443481 77.13894653 C7.97600433 77.13579437 6.93757385 77.13264221 5.86767578 77.12939453 C4.94947052 77.12859894 4.03126526 77.12780334 3.0852356 77.12698364 C1 77 1 77 0 76 C-0.09494733 73.62699131 -0.12559319 71.28321297 -0.11352539 68.90991211 C-0.11367142 68.16849472 -0.11381744 67.42707733 -0.1139679 66.66319275 C-0.11326865 64.20121379 -0.10547574 61.73930957 -0.09765625 59.27734375 C-0.09579211 57.57483461 -0.09436819 55.87232493 -0.09336853 54.16981506 C-0.08954302 49.68006927 -0.07971247 45.19035562 -0.06866455 40.70062256 C-0.05845113 36.12268509 -0.05387106 31.54474244 -0.04882812 26.96679688 C-0.03809022 17.97785043 -0.02101341 8.98892788 0 0 Z M16 14 C15.90666295 15.59610982 15.88254628 17.19633428 15.88647461 18.79516602 C15.88655014 19.81614883 15.88662567 20.83713165 15.88670349 21.88905334 C15.89186478 22.9994548 15.89702606 24.10985626 15.90234375 25.25390625 C15.9037587 26.38448959 15.90517365 27.51507294 15.90663147 28.67991638 C15.91224981 32.30747065 15.92480542 35.93496424 15.9375 39.5625 C15.94251264 42.01497307 15.94707595 44.4674471 15.95117188 46.91992188 C15.9622252 52.94663545 15.97898116 58.97331339 16 65 C44.06554413 66.33558727 44.06554413 66.33558727 69.4375 57.7109375 C76.02351227 50.49925407 76.2972713 42.77982973 76.21875 33.38671875 C75.8114543 27.08090851 73.43299883 22.55965594 69 18 C58.66325893 12.01915081 45.33217893 12.68639067 33.67871094 12.79418945 C31.5773555 12.81292479 29.47643179 12.814695 27.375 12.81445312 C21.21672774 12.21647554 21.21672774 12.21647554 16 14 Z " fill="#000000" transform="translate(1174,1707)"/>
<path d="M0 0 C4.95 0 9.9 0 15 0 C15 21.12 15 42.24 15 64 C32.82 64 50.64 64 69 64 C69 42.88 69 21.76 69 0 C74.28 0 79.56 0 85 0 C85.06787168 8.50171155 85.12287112 17.00321121 85.15543652 25.50512123 C85.17106904 29.45322387 85.1922628 33.40113097 85.22631836 37.34912109 C85.25899851 41.16167489 85.27687117 44.974041 85.28463173 48.78672409 C85.29015977 50.23874235 85.30095474 51.69075074 85.31719017 53.14268875 C85.33908046 55.18210005 85.34196223 57.22074336 85.34057617 59.26025391 C85.35056892 60.99899277 85.35056892 60.99899277 85.36076355 62.77285767 C84.8155415 67.65003875 83.12327773 70.90628221 79.625 74.3125 C75.32439057 77.07717749 71.14897127 77.12642242 66.12744141 77.14526367 C64.3900621 77.15483345 64.3900621 77.15483345 62.61758423 77.16459656 C61.37479706 77.16570938 60.13200989 77.1668222 58.8515625 77.16796875 C56.9227272 77.17296135 56.9227272 77.17296135 54.95492554 77.17805481 C52.23654338 77.18402978 49.51819294 77.18589639 46.79980469 77.18530273 C43.33104961 77.1852012 39.86249964 77.1988511 36.39379311 77.21607494 C33.06721341 77.22992366 29.74067061 77.22928509 26.4140625 77.23046875 C25.17532379 77.23765427 23.93658508 77.24483978 22.66030884 77.25224304 C8.82692349 77.21569679 8.82692349 77.21569679 3.6875 73.1875 C0.27936852 68.76955179 -0.24808172 64.87336962 -0.22705078 59.3737793 C-0.22734283 58.72931351 -0.22763489 58.08484772 -0.22793579 57.42085266 C-0.22655005 55.30516779 -0.21102507 53.18984158 -0.1953125 51.07421875 C-0.19157967 49.60163058 -0.18873397 48.12903991 -0.18673706 46.65644836 C-0.17912183 42.79142328 -0.15949163 38.92654987 -0.1373291 35.06158447 C-0.11682508 31.11334281 -0.10772562 27.1650765 -0.09765625 23.21679688 C-0.07624358 15.47778762 -0.04107882 7.73893444 0 0 Z " fill="#000000" transform="translate(791,1707)"/>
<path d="M0 0 C28.71 0 57.42 0 87 0 C87 3.63 87 7.26 87 11 C85.02170928 12.97829072 81.17672973 12.25503932 78.46484375 12.31640625 C77.71159317 12.33718735 76.95834259 12.35796844 76.18226624 12.37937927 C73.7674401 12.44495425 71.35250202 12.50379621 68.9375 12.5625 C67.30402471 12.6056777 65.6705609 12.64929173 64.03710938 12.69335938 C60.02485536 12.80064362 56.01248836 12.90188821 52 13 C52.00666183 13.75755081 52.01332367 14.51510162 52.02018738 15.29560852 C52.08027832 22.43198443 52.12596391 29.5682378 52.15543652 36.70480061 C52.17109805 40.37386676 52.19234475 44.04272401 52.22631836 47.71166992 C52.25889514 51.25188947 52.27684934 54.79190799 52.28463173 58.33226585 C52.29287924 60.34147655 52.31630137 62.35060628 52.33988953 64.35969543 C52.34011612 65.58073471 52.34034271 66.80177399 52.34057617 68.05981445 C52.34723801 69.13681107 52.35389984 70.21380768 52.36076355 71.32344055 C52 74 52 74 50.62715149 75.84855652 C48.36477007 77.44951645 46.74608965 77.36562376 44 77.3125 C43.13375 77.30863281 42.2675 77.30476563 41.375 77.30078125 C39 77 39 77 36 75 C35.60800171 72.45042419 35.60800171 72.45042419 35.58349609 69.18920898 C35.56692963 67.97132187 35.55036316 66.75343475 35.53329468 65.49864197 C35.52984157 64.16445965 35.52655994 62.83027688 35.5234375 61.49609375 C35.50913395 60.13369697 35.49337811 58.77131471 35.47622681 57.40895081 C35.43431704 53.82055548 35.4093569 50.2322502 35.38873291 46.64367676 C35.35295296 40.89566744 35.29206696 35.14788021 35.23024368 29.40010262 C35.21109398 27.38753951 35.19940645 25.37503577 35.18881226 23.3624115 C35.17855011 22.14767654 35.16828796 20.93294159 35.15771484 19.68139648 C35.15121918 18.60599106 35.14472351 17.53058563 35.13803101 16.42259216 C35.27256051 14.05064767 35.27256051 14.05064767 34 13 C31.56554087 12.8525031 29.15571433 12.76511465 26.71875 12.71875 C25.99006714 12.70034058 25.26138428 12.68193115 24.51062012 12.66296387 C22.17383107 12.6040406 19.83696827 12.55129346 17.5 12.5 C14.42692089 12.43254985 11.35408684 12.35888207 8.28125 12.28125 C7.56771362 12.26767456 6.85417725 12.25409912 6.11901855 12.2401123 C1.11280181 12.11280181 1.11280181 12.11280181 0 11 C0 7.37 0 3.74 0 0 Z " fill="#000000" transform="translate(425,1707)"/>
<path d="M0 0 C4.75698834 3.49118028 8.01422109 7.71242562 9.8203125 13.3359375 C10.6523365 20.97894862 10.66150599 27.18631334 5.8203125 33.3359375 C0.0181884 38.71351594 -5.00362712 38.688227 -12.66015625 38.609375 C-19.32488927 38.0915822 -23.20514063 35.67340485 -27.6171875 30.7734375 C-31.68347521 25.79860595 -31.57592436 20.87282295 -31.52734375 14.640625 C-30.88666279 8.55055654 -28.0006619 5.06586318 -23.6796875 0.9609375 C-16.2407938 -3.87434341 -7.82924148 -4.46932409 0 0 Z " fill="#000000" transform="translate(487.1796875,1299.6640625)"/>
<path d="M0 0 C4.62 0 9.24 0 14 0 C14 25.08 14 50.16 14 76 C9.38 76 4.76 76 0 76 C0 50.92 0 25.84 0 0 Z " fill="#000000" transform="translate(1557,1708)"/>
</svg>