<?xml version="1.0" encoding="UTF-8"?>
<svg version="1.1" xmlns="http://www.w3.org/2000/svg" width="240" height="240">
<path d="M0 0 C79.2 0 158.4 0 240 0 C240 79.2 240 158.4 240 240 C160.8 240 81.6 240 0 240 C0 160.8 0 81.6 0 0 Z " fill="#FEFEFE" transform="translate(0,0)"/>
<path d="M0 0 C3.52271876 2.748328 6.35618512 5.07724643 8.84375 8.80859375 C4.6457896 7.46711515 0.56322305 5.9289216 -3.52636719 4.29541016 C-19.77914132 -2.18720709 -40.57124259 -9.0486608 -58.0546875 -3.09765625 C-65.60712242 0.47881167 -70.5858166 5.30740798 -74.15625 12.80859375 C-73.56199219 12.36128906 -72.96773437 11.91398437 -72.35546875 11.453125 C-57.78385546 0.82468545 -42.97023955 -3.38171978 -25.07275391 -0.90283203 C-9.2563732 2.0810129 4.7209518 9.86492707 17.84375 18.80859375 C19.26494141 19.71738281 19.26494141 19.71738281 20.71484375 20.64453125 C21.95427734 21.43730469 21.95427734 21.43730469 23.21875 22.24609375 C23.92773438 22.69855469 24.63671875 23.15101562 25.3671875 23.6171875 C25.85445313 24.01035156 26.34171875 24.40351562 26.84375 24.80859375 C26.84375 25.46859375 26.84375 26.12859375 26.84375 26.80859375 C25.69519531 26.89496094 24.54664063 26.98132813 23.36328125 27.0703125 C4.26554598 28.71079867 -9.85517009 35.02638543 -23.16650391 48.88623047 C-30.63216817 56.54235665 -40.39487289 64.7221967 -51.25390625 66.2421875 C-57.34109405 66.25020751 -61.51727219 66.20967527 -66.15625 61.80859375 C-68.73327109 58.37256563 -69.15625 57.20786507 -69.15625 52.80859375 C-64.45957681 54.63507777 -64.45957681 54.63507777 -62.33984375 55.84765625 C-59.62128781 57.04401539 -57.43543123 57.2155214 -54.46875 57.30859375 C-53.00888672 57.3859375 -53.00888672 57.3859375 -51.51953125 57.46484375 C-42.78246169 55.76004969 -36.6163841 48.57801568 -30.71875 42.37109375 C-24.94042339 36.44309901 -19.33943069 31.02921969 -12.15625 26.80859375 C-11.50269531 26.40640625 -10.84914063 26.00421875 -10.17578125 25.58984375 C-5.4298506 22.75645232 -1.71791043 20.80859375 3.84375 20.80859375 C3.84375 20.14859375 3.84375 19.48859375 3.84375 18.80859375 C-2.37151161 16.72286043 -8.59823834 14.67694871 -14.84375 12.68359375 C-15.65908203 12.41933594 -16.47441406 12.15507813 -17.31445312 11.8828125 C-30.19156498 7.78129102 -43.77787897 6.54180089 -56.15625 12.80859375 C-68.4076123 19.64335696 -75.24507298 29.32944226 -81.15625 41.80859375 C-81.81625 41.80859375 -82.47625 41.80859375 -83.15625 41.80859375 C-87.70558686 32.99425359 -88.79301143 24.27694904 -86.34375 14.59765625 C-82.02468212 2.93017427 -73.25101388 -5.96050877 -62.0234375 -11.18359375 C-41.24676915 -19.47846134 -17.57612659 -12.2032265 0 0 Z " fill="#0B8E49" transform="translate(156.15625,84.19140625)"/>
<path d="M0 0 C-6.67294779 5.06593824 -13.80652336 8.17227571 -21.5874939 11.12365723 C-24.94210319 12.3998363 -28.27977686 13.71867948 -31.6171875 15.0390625 C-32.26670883 15.29578735 -32.91623016 15.55251221 -33.58543396 15.8170166 C-57.11737364 25.17877084 -72.75152906 38.31714225 -86 59.8125 C-86.66 60.864375 -87.32 61.91625 -88 63 C-88.33 63 -88.66 63 -89 63 C-90.00607047 50.92715436 -84.1392671 40.44225649 -77 31 C-61.05019916 12.3011278 -40.60188264 5.01977328 -17 1 C-15.65880979 0.75936181 -14.31766018 0.51849713 -12.9765625 0.27734375 C-4.29629256 -1.19537621 -4.29629256 -1.19537621 0 0 Z " fill="#0B8E48" transform="translate(146,105)"/>
<path d="M0 0 C0.33 0 0.66 0 1 0 C0.22097752 9.15351418 -3.6414005 17.34312931 -10 24 C-17.91230371 30.52601579 -25.33851883 34.5396506 -35.6875 34.3125 C-36.43322266 34.31572266 -37.17894531 34.31894531 -37.94726562 34.32226562 C-41.7637745 34.28481549 -44.76692005 34.14116904 -48 32 C-44.91268514 30.28240934 -42.07622669 29.51692846 -38.625 28.8125 C-22.19253338 24.79968764 -11.3400112 15.7964046 -1.75 2.34375 C-1.1725 1.5703125 -0.595 0.796875 0 0 Z " fill="#0C8E48" transform="translate(162,118)"/>
<path d="M0 0 C1.093125 0.185625 2.18625 0.37125 3.3125 0.5625 C6.93624133 1.2578068 6.93624133 1.2578068 10 0 C12.97 2.64 15.94 5.28 19 8 C18.01 8.495 18.01 8.495 17 9 C14.609375 8.109375 14.609375 8.109375 11.75 6.75 C10.76902344 6.28722656 9.78804687 5.82445313 8.77734375 5.34765625 C5.83847084 3.92162087 2.9058388 2.49218749 0 1 C0 0.67 0 0.34 0 0 Z " fill="#19914D" transform="translate(146,84)"/>
<path d="M0 0 C0.66 0 1.32 0 2 0 C2.75 3.1875 2.75 3.1875 3 7 C1.0625 9.9375 1.0625 9.9375 -1 12 C-1.02712066 10.56260487 -1.04645067 9.12506137 -1.0625 7.6875 C-1.07410156 6.88699219 -1.08570313 6.08648437 -1.09765625 5.26171875 C-1 3 -1 3 0 0 Z " fill="#219554" transform="translate(58,156)"/>
<path d="M0 0 C-0.639375 0.309375 -1.27875 0.61875 -1.9375 0.9375 C-3.93610821 1.8345163 -3.93610821 1.8345163 -5 3 C-6.99958364 3.04080783 -9.00045254 3.04254356 -11 3 C-11.33 2.34 -11.66 1.68 -12 1 C-8.0186217 -0.3271261 -4.14954773 -0.06915913 0 0 Z " fill="#1B9250" transform="translate(126,148)"/>
<path d="M0 0 C0.33 0 0.66 0 1 0 C0.25 6.75 0.25 6.75 -2 9 C-2 8.34 -2 7.68 -2 7 C-2.66 6.67 -3.32 6.34 -4 6 C-2.69593116 3.98079663 -1.36176581 1.98075027 0 0 Z " fill="#229554" transform="translate(162,118)"/>
</svg>